<svg width="49" height="48" fill="none" xmlns="http://www.w3.org/2000/svg"><path d="M48.442 6.68a.6.6 0 0 0-.608-.337l-6.384.708.776-6.378a.6.6 0 0 0-1.017-.5l-3.71 3.672A23.86 23.86 0 0 0 24.49 0C11.263 0 .5 10.767.5 24s10.762 24 23.99 24c13.228 0 23.99-10.767 23.99-24 0-4.64-1.33-9.121-3.832-12.996l3.675-3.637a.601.601 0 0 0 .118-.686ZM47.28 24c0 12.572-10.224 22.8-22.79 22.8C11.924 46.8 1.7 36.57 1.7 24c0-12.572 10.223-22.8 22.79-22.8 4.323 0 8.5 1.22 12.131 3.512l-3.417 3.383a.6.6 0 0 0-.178.447l.085 2.543a15.347 15.347 0 0 0-8.621-2.617c-8.561 0-15.526 6.967-15.526 15.531s6.964 15.532 15.526 15.532c8.56 0 15.525-6.968 15.525-15.532a15.36 15.36 0 0 0-2.628-8.642l2.484.104h.024a.6.6 0 0 0 .423-.173l3.454-3.42A22.686 22.686 0 0 1 47.281 24Zm-11.418-8.706A14.18 14.18 0 0 1 38.816 24c0 7.902-6.426 14.33-14.325 14.33-7.899 0-14.326-6.428-14.326-14.33 0-7.903 6.427-14.332 14.326-14.332 3.172 0 6.163 1.017 8.672 2.932l.062 1.851-3.878 3.88a7.432 7.432 0 0 0-4.856-1.806c-4.12 0-7.472 3.353-7.472 7.475 0 4.121 3.352 7.474 7.472 7.474 4.12 0 7.472-3.353 7.472-7.474a7.439 7.439 0 0 0-1.769-4.82l3.957-3.957 1.712.07ZM24.087 24.44a.598.598 0 0 0 .849 0l4.408-4.41A6.246 6.246 0 0 1 30.763 24a6.28 6.28 0 0 1-6.273 6.274A6.28 6.28 0 0 1 18.22 24a6.28 6.28 0 0 1 6.271-6.276 6.24 6.24 0 0 1 4.009 1.454l-4.413 4.415a.6.6 0 0 0 0 .848Zm15.574-10.19-5.25-.219-.175-5.268 6.592-6.524-.66 5.418a.6.6 0 0 0 .662.67l5.424-.603-6.593 6.526Z" fill="#10584B"/></svg>