<svg width="50" height="48" fill="none" xmlns="http://www.w3.org/2000/svg"><path d="M35.474 23.574a.678.678 0 0 0 .44.188.678.678 0 0 0 .44-.188.607.607 0 0 0 0-.88L25.678 12.02a.607.607 0 0 0-.88 0 .607.607 0 0 0 0 .88l.817.816-23.358 23.42C1.128 38.33.5 39.837.5 41.47c0 1.632.628 3.14 1.82 4.332l.377.377c1.13 1.13 2.7 1.82 4.333 1.82 1.632 0 3.14-.627 4.333-1.82l23.42-23.42.69.816Zm-1.695-1.696L29.258 26.4l-2.26-2.26a.607.607 0 0 0-.88 0 .607.607 0 0 0 0 .879l2.26 2.26-1.695 1.696-2.26-2.26a.607.607 0 0 0-.88 0 .607.607 0 0 0 0 .878l2.261 2.26-1.695 1.696-2.323-2.26a.607.607 0 0 0-.88 0 .607.607 0 0 0 0 .879l2.261 2.26-1.696 1.696-2.26-2.26a.607.607 0 0 0-.879 0 .607.607 0 0 0 0 .878l2.26 2.26-1.695 1.696-2.26-2.26a.607.607 0 0 0-.88 0 .607.607 0 0 0 0 .879l2.261 2.26-1.695 1.696-2.26-2.26a.607.607 0 0 0-.88 0 .607.607 0 0 0 0 .878l2.26 2.26-5.085 5.087c-.942.941-2.135 1.444-3.454 1.444-1.319 0-2.511-.503-3.454-1.444l-.376-.377c-.942-.942-1.444-2.135-1.444-3.454 0-1.319.502-2.511 1.444-3.453l23.42-23.421 7.285 7.346ZM34.28.341c-1.946.88-2.825 3.203-1.946 5.212.44.942 1.193 1.696 2.198 2.072.44.189.942.251 1.382.251.565 0 1.13-.126 1.632-.377.942-.44 1.695-1.193 2.072-2.197a3.86 3.86 0 0 0-.126-3.014C38.613.34 36.29-.538 34.281.34Zm4.145 4.521c-.251.691-.753 1.194-1.381 1.507-.628.315-1.382.315-2.072.063a2.939 2.939 0 0 1-1.507-1.381c-.628-1.32 0-2.951 1.318-3.516 1.32-.629 2.952 0 3.517 1.318.376.628.376 1.319.125 2.01Z" fill="#10584B"/><path d="M35.097 2.224c-.314.126-.44.502-.314.816.126.314.502.44.816.314.314-.125.691 0 .817.314.125.251.314.377.565.377.062 0 .188 0 .25-.063.315-.125.44-.502.315-.816-.377-.942-1.507-1.381-2.449-.942ZM47.843 6.87c-.816-.314-1.632-.25-2.448.063-1.57.753-2.324 2.637-1.57 4.207.377.753 1.005 1.381 1.758 1.695.377.126.753.189 1.13.189.44 0 .879-.126 1.319-.314.753-.377 1.381-1.005 1.695-1.758.314-.817.251-1.633-.062-2.45-.314-.815-1.005-1.317-1.822-1.632Zm.691 3.705a1.872 1.872 0 0 1-1.005 1.067c-.44.189-1.004.251-1.507.063-.502-.188-.816-.565-1.004-1.004-.44-.942 0-2.135.942-2.575.25-.126.502-.188.816-.188.251 0 .44.062.69.126.503.188.88.565 1.068 1.004.188.44.188 1.005 0 1.507Z" fill="#10584B"/><path d="M46.085 8.44c-.314.125-.44.502-.314.816.126.314.503.44.817.314a.191.191 0 0 1 .25 0c.063.063.189.126.189.188.126.251.314.377.565.377.063 0 .188 0 .25-.063.315-.125.44-.502.315-.816-.314-.816-1.255-1.193-2.072-.816ZM22.978 1.85c-1.57.753-2.323 2.637-1.57 4.206.503 1.194 1.696 1.884 2.89 1.884.439 0 .878-.062 1.318-.314 1.57-.753 2.323-2.637 1.57-4.207-.691-1.57-2.575-2.26-4.207-1.57Zm2.135 4.646c-.941.44-2.135 0-2.574-.942-.44-.941 0-2.134.941-2.574.942-.44 2.135 0 2.575.942.44.942 0 2.134-.942 2.574Z" fill="#10584B"/><path d="M23.606 3.293c-.314.126-.44.503-.314.817.126.314.502.44.816.314.189-.063.377 0 .44.188.126.251.314.377.565.377.063 0 .189 0 .251-.063.314-.126.44-.502.314-.816-.314-.817-1.255-1.194-2.072-.817Zm15.509 8.099c-1.067-.377-2.197-.377-3.265.125-2.134.942-3.077 3.516-2.134 5.651.502 1.068 1.318 1.82 2.386 2.198a4.23 4.23 0 0 0 1.507.251c.628 0 1.193-.126 1.758-.377 1.067-.502 1.82-1.318 2.198-2.386.377-1.067.377-2.198-.126-3.265-.502-1.067-1.256-1.82-2.324-2.197Zm1.32 5.023c-.252.753-.817 1.319-1.57 1.695-.754.314-1.57.377-2.324.063a2.793 2.793 0 0 1-1.695-1.57c-.314-.753-.377-1.57-.063-2.323.314-.753.817-1.319 1.57-1.695.377-.189.817-.251 1.256-.251.377 0 .69.062 1.067.188a2.793 2.793 0 0 1 1.696 1.57c.313.753.376 1.57.062 2.323Z" fill="#10584B"/><path d="M38.3 13.464a1.956 1.956 0 0 0-1.57.063c-.315.126-.44.502-.315.816.126.314.503.44.817.314a.873.873 0 0 1 .565 0c.188.063.314.189.44.377.125.251.314.377.565.377.062 0 .188 0 .25-.063.315-.126.44-.502.315-.816a1.793 1.793 0 0 0-1.068-1.068Zm-21.036-5.15c-1.507 0-2.762 1.256-2.762 2.763 0 1.508 1.255 2.763 2.762 2.763 1.508 0 2.763-1.255 2.763-2.763 0-1.506-1.255-2.763-2.763-2.763Zm0 4.27c-.816 0-1.507-.69-1.507-1.507 0-.816.691-1.507 1.507-1.507.817 0 1.508.691 1.508 1.507 0 .817-.691 1.507-1.508 1.507ZM44.83 21.06c-1.508 0-2.764 1.256-2.764 2.763 0 1.508 1.256 2.763 2.763 2.763 1.508 0 2.763-1.255 2.763-2.763 0-1.506-1.255-2.762-2.763-2.762Zm0 4.333c-.817 0-1.508-.69-1.508-1.507 0-.816.691-1.507 1.507-1.507.817 0 1.508.69 1.508 1.507s-.691 1.507-1.508 1.507Zm-7.222 4.773c-1.507 0-2.762 1.256-2.762 2.763s1.255 2.763 2.763 2.763c1.507 0 2.762-1.256 2.762-2.763a2.747 2.747 0 0 0-2.763-2.763Zm0 4.332c-.816 0-1.507-.69-1.507-1.507 0-.816.691-1.507 1.508-1.507.816 0 1.507.69 1.507 1.507s-.629 1.507-1.508 1.507Z" fill="#10584B"/></svg>