<svg width="37" height="48" fill="none" xmlns="http://www.w3.org/2000/svg"><path d="M.5 13.103a.6.6 0 0 0 .989.457c.017-.014 1.752-1.476 4.245-2.207 1.114-.326 2.191-.453 3.23-.391a5.869 5.869 0 0 0-1.733.882 5.92 5.92 0 0 0-1.215 8.273.6.6 0 0 0 1.066-.223c.004-.017.395-1.677 1.575-3.24 1.399-1.855 3.268-2.745 5.551-2.683-.13 7.15.293 21.64 5.036 32.829h-1.68a.6.6 0 1 0 0 1.2h7.533a.6.6 0 1 0 0-1.2h-2.19c4.284-6.21 4.897-13.418 4.918-16.818 3.266-.05 4.11 3.344 4.144 3.494a.6.6 0 0 0 1.067.224 3.899 3.899 0 0 0-.801-5.449c-.036-.027-.074-.048-.11-.073 1.842.294 3.213 1.424 3.31 1.506a.6.6 0 0 0 .987-.457 4.934 4.934 0 0 0-4.928-4.928c-.114 0-.225.01-.337.017 1.569-.534 3.111-.223 3.22-.2a.599.599 0 0 0 .659-.867 4.504 4.504 0 0 0-6.084-1.86 4.458 4.458 0 0 0-1.789 1.737 4.463 4.463 0 0 0-1.784-1.736 4.506 4.506 0 0 0-6.085 1.859.6.6 0 0 0 .658.867c.113-.023 1.691-.347 3.28.213-.124-.009-.246-.018-.371-.018a4.91 4.91 0 0 0-4.904 4.904.6.6 0 0 0 .988.457c.098-.084 1.524-1.261 3.424-1.519-.05.033-.1.063-.147.099a3.899 3.899 0 0 0-.801 5.448.599.599 0 0 0 1.066-.222c.036-.152.879-3.53 4.124-3.497-.04 3.39-.696 10.803-5.183 16.818h-.881c-4.85-11.05-5.274-25.653-5.142-32.801 6.103-.572 7.62 5.63 7.68 5.897a.604.604 0 0 0 .586.464.602.602 0 0 0 .482-.24 5.92 5.92 0 0 0-1.216-8.274 5.852 5.852 0 0 0-1.75-.888 9.516 9.516 0 0 1 3.06.392c2.515.728 4.29 2.216 4.308 2.232a.6.6 0 0 0 .988-.457c0-4.18-3.4-7.58-7.58-7.58-1.146 0-2.23.263-3.204.72 3.204-2.715 7.69-1.795 7.936-1.74a.6.6 0 0 0 .657-.868A6.843 6.843 0 0 0 23.284.303a6.852 6.852 0 0 0-5.247.507 6.844 6.844 0 0 0-3.054 3.294A6.85 6.85 0 0 0 11.929.81 6.846 6.846 0 0 0 6.682.303a6.842 6.842 0 0 0-4.068 3.353.6.6 0 0 0 .658.867c.02-.004 2.017-.433 4.31.042 1.423.294 2.623.868 3.609 1.696a7.48 7.48 0 0 0-3.15-.698C3.884 5.56.5 8.943.5 13.103Zm32.075 17.881c.037.255.038.51.005.758-.65-1.23-1.82-2.518-3.654-2.874a2.698 2.698 0 0 1 3.65 2.116Zm2.43-3.01c-.912-.504-2.265-1.06-3.796-1.06a6.048 6.048 0 0 0-3.162.887 3.735 3.735 0 0 1 3.445-2.304 3.734 3.734 0 0 1 3.513 2.477Zm-7.096-3.577a3.276 3.276 0 0 1 1.606-1.948 3.285 3.285 0 0 1 2.513-.242c.424.13.81.337 1.141.612-1.545.004-3.95.418-5.403 2.681a3.318 3.318 0 0 1 .143-1.103Zm-6.746-1.578a3.304 3.304 0 0 1 3.651-.37 3.305 3.305 0 0 1 1.749 3.05c-1.453-2.261-3.856-2.676-5.4-2.68Zm1.697 2.69a3.71 3.71 0 0 1 3.42 2.28c-2.708-1.62-5.405-.655-6.906.172a3.711 3.711 0 0 1 3.486-2.451Zm-.985 6.233a2.71 2.71 0 0 1 .005-.758c.105-.712.48-1.34 1.058-1.77a2.68 2.68 0 0 1 1.605-.531c.337 0 .672.062.986.185-1.833.356-3.004 1.644-3.654 2.874ZM1.822 11.858a6.353 6.353 0 0 1 6.22-5.097c3.011 0 5.54 2.11 6.183 4.93-5.015-3.672-10.19-1.231-12.403.167Zm4.545 6.445a4.688 4.688 0 0 1-.27-2.4 4.68 4.68 0 0 1 1.85-3.095 4.675 4.675 0 0 1 3.497-.882c.762.112 1.47.402 2.078.842-4.318.222-6.346 3.605-7.155 5.535Zm17.705-2.4c.12.824.025 1.644-.27 2.4-.81-1.93-2.837-5.312-7.153-5.535a4.719 4.719 0 0 1 5.572.04 4.682 4.682 0 0 1 1.85 3.095h.001Zm4.15-4.025c-1.358-.86-3.832-2.114-6.705-2.114-1.826 0-3.814.508-5.777 1.947a6.392 6.392 0 0 1 6.224-4.97c3.093 0 5.678 2.213 6.258 5.137Zm-9.62-10.011a5.658 5.658 0 0 1 4.332-.418c1.048.32 1.961.92 2.656 1.734-2.405-.159-7.402.169-9.846 5.046a5.699 5.699 0 0 1 2.857-6.362ZM5.265 3.155c-.324 0-.622.01-.888.028A5.65 5.65 0 0 1 7.033 1.45a5.656 5.656 0 0 1 4.334.418 5.698 5.698 0 0 1 2.856 6.361c-2.173-4.337-6.36-5.073-8.957-5.073Z" fill="#10584B"/></svg>