<svg width="276" height="95" viewBox="0 0 276 95" fill="none" xmlns="http://www.w3.org/2000/svg">
<path d="M2.7496 44.231C2.7496 25.7203 14.1333 9.07203 31.885 6.20347C40.2696 4.84856 49.2329 4.18117 57.3775 5.15698C65.535 6.13433 72.6512 8.73167 77.6189 13.7011C82.5883 18.6722 85.185 25.7939 86.1614 33.9576C87.1362 42.1082 86.4676 51.0778 85.1119 59.4672C82.2438 77.2151 65.6092 88.5974 47.104 88.5974C22.6085 88.5974 2.7496 68.728 2.7496 44.231Z" stroke="white" stroke-width="4.41522"/>
<path d="M114.756 26.1455V4.51094H118.033V13.4738H127.49V4.51094H130.766V26.1455H127.49V16.4718H118.033V26.1455H114.756ZM139.284 26.5164C138.068 26.5164 137.049 26.3103 136.224 25.8983C135.4 25.4656 134.782 24.8989 134.37 24.1984C133.958 23.4772 133.752 22.6943 133.752 21.8495C133.752 20.3454 134.298 19.1709 135.39 18.3262C136.503 17.4814 138.068 17.059 140.088 17.059H144.044V16.719C144.044 14.4113 142.972 13.2575 140.829 13.2575C139.943 13.2575 139.191 13.4532 138.573 13.8447C137.976 14.2156 137.574 14.8234 137.368 15.6682H134.092C134.257 14.0611 134.947 12.7939 136.163 11.8667C137.399 10.9189 138.954 10.445 140.829 10.445C143.096 10.445 144.744 11.0013 145.775 12.1139C146.805 13.2266 147.32 14.7616 147.32 16.719V26.1455H144.538L144.26 23.8893H144.044C143.59 24.6105 143.024 25.2286 142.344 25.7437C141.664 26.2588 140.644 26.5164 139.284 26.5164ZM139.902 23.7657C141.242 23.7657 142.241 23.3639 142.9 22.5604C143.58 21.7362 143.951 20.6957 144.013 19.4388H140.428C139.253 19.4388 138.419 19.6345 137.924 20.026C137.45 20.3969 137.213 20.9223 137.213 21.6022C137.213 22.2822 137.45 22.8179 137.924 23.2094C138.419 23.5803 139.078 23.7657 139.902 23.7657ZM152.902 26.1455L149.564 10.8159H152.778L154.633 21.5713L156.827 10.8159H160.35L162.545 21.5713L164.399 10.8159H167.613L164.275 26.1455H160.907L158.589 15.081L156.271 26.1455H152.902ZM178.171 26.1455C176.667 26.1455 175.472 25.7849 174.586 25.0638C173.7 24.322 173.257 23.0136 173.257 21.1387V13.5975H169.394V10.8159H171.681C172.732 10.8159 173.35 10.3008 173.535 9.27055L173.999 6.79802H176.533V10.8159H182.591V13.5975H176.533V21.0768C176.533 21.8804 176.708 22.447 177.059 22.7767C177.43 23.0858 178.058 23.2403 178.944 23.2403H182.529V26.1455H178.171ZM187.4 26.1455V3.89281H190.676V13.103C191.088 12.3406 191.748 11.7122 192.654 11.2177C193.561 10.7025 194.581 10.445 195.714 10.445C197.61 10.445 199.052 11.0219 200.041 12.1758C201.03 13.309 201.525 14.947 201.525 17.0899V26.1455H198.248V17.5535C198.248 16.276 197.939 15.287 197.321 14.5865C196.703 13.8859 195.848 13.5356 194.756 13.5356C193.623 13.5356 192.654 13.9168 191.851 14.6792C191.068 15.4415 190.676 16.5439 190.676 17.9862V26.1455H187.4ZM212.33 26.5164C210.867 26.5164 209.558 26.1867 208.405 25.5274C207.251 24.868 206.344 23.9408 205.685 22.7458C205.026 21.5301 204.696 20.1084 204.696 18.4807C204.696 16.8529 205.026 15.4415 205.685 14.2465C206.344 13.0308 207.251 12.0933 208.405 11.434C209.558 10.7747 210.877 10.445 212.361 10.445C213.844 10.445 215.153 10.7747 216.286 11.434C217.44 12.0933 218.336 13.0308 218.975 14.2465C219.634 15.4415 219.964 16.8529 219.964 18.4807C219.964 20.1084 219.634 21.5301 218.975 22.7458C218.315 23.9408 217.409 24.868 216.255 25.5274C215.122 26.1867 213.813 26.5164 212.33 26.5164ZM212.33 23.3948C213.113 23.3948 213.834 23.2197 214.493 22.8694C215.153 22.5191 215.678 21.9834 216.069 21.2623C216.482 20.5205 216.688 19.5933 216.688 18.4807C216.688 17.3475 216.482 16.4203 216.069 15.6991C215.678 14.978 215.153 14.4422 214.493 14.092C213.854 13.7417 213.144 13.5666 212.361 13.5666C211.578 13.5666 210.857 13.7417 210.197 14.092C209.538 14.4422 209.002 14.978 208.59 15.6991C208.199 16.4203 208.003 17.3475 208.003 18.4807C208.003 20.1702 208.425 21.4168 209.27 22.2204C210.135 23.0033 211.155 23.3948 212.33 23.3948ZM223.351 26.1455V23.3021H227.091V14.6792C227.091 13.9992 226.761 13.6593 226.102 13.6593H223.66V10.8159H227.338C228.183 10.8159 228.873 11.0631 229.409 11.5576C229.945 12.0315 230.213 12.7012 230.213 13.5666V13.9374H230.367C230.594 12.7836 231.078 11.9182 231.82 11.3413C232.582 10.7438 233.684 10.445 235.127 10.445H237.507V13.9065H234.169C232.953 13.9065 232.015 14.3289 231.356 15.1737C230.697 16.0185 230.367 17.0281 230.367 18.2025V23.3021H235.127V26.1455H223.351ZM241.296 26.1455V10.8159H244.139L244.417 13.103H244.572C244.984 12.3612 245.623 11.7328 246.488 11.2177C247.354 10.7025 248.353 10.445 249.486 10.445C251.361 10.445 252.773 11.0116 253.72 12.1449C254.668 13.2781 255.142 14.947 255.142 17.1517V26.1455H251.866V17.5535C251.866 16.276 251.598 15.287 251.062 14.5865C250.527 13.8859 249.682 13.5356 248.528 13.5356C247.395 13.5356 246.447 13.9168 245.685 14.6792C244.943 15.4415 244.572 16.5439 244.572 17.9862V26.1455H241.296ZM266.256 26.5164C264.773 26.5164 263.464 26.1867 262.331 25.5274C261.198 24.8474 260.312 23.9099 259.673 22.7149C259.035 21.5198 258.715 20.129 258.715 18.5425C258.715 16.9354 259.024 15.524 259.642 14.3083C260.281 13.0927 261.167 12.1449 262.3 11.4649C263.454 10.785 264.783 10.445 266.287 10.445C267.771 10.445 269.048 10.785 270.12 11.4649C271.191 12.1242 272.015 13.0102 272.592 14.1229C273.19 15.2355 273.488 16.4615 273.488 17.8007C273.488 18.0068 273.488 18.2334 273.488 18.4807C273.488 18.7073 273.478 18.9649 273.458 19.2534H261.929C262.032 20.6751 262.496 21.7568 263.32 22.4985C264.144 23.2197 265.113 23.5803 266.225 23.5803C267.194 23.5803 267.956 23.3845 268.513 22.993C269.089 22.581 269.512 22.0246 269.78 21.3241H273.087C272.716 22.787 271.943 24.0233 270.769 25.0329C269.594 26.0219 268.09 26.5164 266.256 26.5164ZM266.256 13.2884C265.247 13.2884 264.35 13.5975 263.567 14.2156C262.785 14.8131 262.28 15.6579 262.053 16.7499H270.212C270.13 15.7197 269.728 14.8852 269.007 14.2465C268.286 13.6078 267.369 13.2884 266.256 13.2884ZM122.978 57.5164C121.453 57.5164 120.114 57.2382 118.96 56.6819C117.826 56.1256 116.93 55.3323 116.271 54.3021C115.632 53.2719 115.302 52.0459 115.282 50.6242H118.743C118.764 51.7163 119.135 52.6538 119.856 53.4367C120.598 54.1991 121.628 54.5803 122.947 54.5803C124.162 54.5803 125.11 54.3021 125.79 53.7458C126.47 53.1689 126.81 52.4271 126.81 51.5205C126.81 50.7582 126.604 50.1297 126.192 49.6352C125.8 49.1201 125.182 48.6668 124.337 48.2753C123.493 47.8632 122.401 47.4409 121.061 47.0082C119.269 46.4312 117.95 45.638 117.105 44.6284C116.261 43.5981 115.838 42.3413 115.838 40.8578C115.838 39.1476 116.456 37.7671 117.693 36.7163C118.929 35.6655 120.629 35.1401 122.792 35.1401C124.894 35.1401 126.583 35.6861 127.861 36.7781C129.138 37.8495 129.798 39.3433 129.839 41.2596H126.346C126.346 40.7444 126.202 40.2499 125.914 39.776C125.625 39.2815 125.213 38.8798 124.677 38.5707C124.142 38.241 123.482 38.0762 122.699 38.0762C121.731 38.0556 120.917 38.2925 120.258 38.787C119.598 39.2609 119.269 39.91 119.269 40.7341C119.269 41.7438 119.671 42.537 120.474 43.1139C121.278 43.6703 122.586 44.2472 124.399 44.8447C125.533 45.2156 126.532 45.6689 127.397 46.2046C128.283 46.7197 128.973 47.3893 129.468 48.2135C129.983 49.0171 130.241 50.0473 130.241 51.3042C130.241 52.458 129.952 53.5088 129.375 54.4566C128.798 55.3838 127.964 56.1256 126.872 56.6819C125.8 57.2382 124.502 57.5164 122.978 57.5164ZM134.432 57.1455V34.8928H137.708V48.2444L143.58 41.8159H147.691L141.293 48.6153V48.8626L148.525 57.1455H144.538L137.708 49.2643V57.1455H134.432ZM158.28 39.467C157.558 39.467 156.951 39.2403 156.456 38.787C155.982 38.3131 155.745 37.7362 155.745 37.0563C155.745 36.3763 155.982 35.8097 156.456 35.3564C156.951 34.9031 157.558 34.6765 158.28 34.6765C159.021 34.6765 159.629 34.9031 160.103 35.3564C160.598 35.8097 160.845 36.3763 160.845 37.0563C160.845 37.7362 160.598 38.3131 160.103 38.787C159.629 39.2403 159.021 39.467 158.28 39.467ZM152.129 57.1455V54.3021H156.951V45.6792C156.951 44.9992 156.621 44.6593 155.962 44.6593H152.562V41.8159H156.549C157.826 41.8159 158.753 42.1146 159.33 42.7122C159.928 43.2891 160.227 44.2163 160.227 45.4937V54.3021H165.048V57.1455H152.129ZM169.641 57.1455V41.8159H172.484L172.763 44.103H172.917C173.329 43.3612 173.968 42.7328 174.833 42.2177C175.699 41.7025 176.698 41.445 177.831 41.445C179.706 41.445 181.118 42.0116 182.066 43.1449C183.013 44.2781 183.487 45.947 183.487 48.1517V57.1455H180.211V48.5535C180.211 47.276 179.943 46.287 179.408 45.5865C178.872 44.8859 178.027 44.5356 176.873 44.5356C175.74 44.5356 174.792 44.9168 174.03 45.6792C173.288 46.4415 172.917 47.5439 172.917 48.9862V57.1455H169.641ZM210.661 57.4855C208.621 57.4855 206.973 56.8983 205.716 55.7238C204.48 54.5288 203.861 52.901 203.861 50.8406C203.861 49.5631 204.191 48.399 204.85 47.3481C205.51 46.2767 206.458 45.3804 207.694 44.6593C206.684 43.1758 206.179 41.7644 206.179 40.4251C206.179 39.4361 206.396 38.5501 206.828 37.7671C207.282 36.9635 207.941 36.3248 208.806 35.8509C209.672 35.377 210.712 35.1401 211.928 35.1401C213.741 35.1401 215.132 35.6346 216.1 36.6236C217.089 37.592 217.584 38.8076 217.584 40.2705H214.431C214.411 39.5494 214.153 38.9828 213.659 38.5707C213.185 38.1586 212.598 37.9526 211.897 37.9526C211.114 37.9526 210.496 38.1792 210.043 38.6325C209.589 39.0858 209.363 39.673 209.363 40.3942C209.363 41.0123 209.528 41.6407 209.857 42.2795C210.208 42.8976 210.692 43.5981 211.31 44.3811L215.668 49.9134L217.491 45.9264H220.891L217.986 52.1077C217.903 52.2726 217.831 52.4271 217.769 52.5713L221.354 57.1455H217.584L216.039 55.1984C215.379 55.9195 214.617 56.4862 213.751 56.8983C212.886 57.2897 211.856 57.4855 210.661 57.4855ZM207.137 50.7479C207.137 51.8399 207.467 52.7465 208.126 53.4676C208.786 54.1888 209.651 54.5494 210.723 54.5494C211.444 54.5494 212.072 54.3948 212.608 54.0858C213.144 53.7767 213.638 53.3337 214.091 52.7568L209.394 46.9154C207.89 47.8632 207.137 49.1407 207.137 50.7479ZM115.22 88.1455V66.5109H122.947C125.193 66.5109 126.892 67.026 128.046 68.0563C129.2 69.0865 129.777 70.4155 129.777 72.0432C129.777 73.3001 129.447 74.32 128.788 75.103C128.129 75.8859 127.366 76.4525 126.501 76.8028V77.0192C127.531 77.39 128.417 77.9979 129.159 78.8426C129.901 79.6668 130.272 80.7588 130.272 82.1187C130.272 83.2314 129.993 84.2513 129.437 85.1785C128.901 86.0851 128.108 86.8062 127.057 87.3419C126.006 87.8777 124.719 88.1455 123.194 88.1455H115.22ZM118.496 75.5356H122.545C123.802 75.5356 124.76 75.2884 125.419 74.7939C126.079 74.2788 126.408 73.5061 126.408 72.4759C126.408 70.4361 125.1 69.4162 122.483 69.4162H118.496V75.5356ZM118.496 85.1167H122.761C124.1 85.1167 125.131 84.8282 125.852 84.2513C126.573 83.6744 126.934 82.8296 126.934 81.717C126.934 80.6249 126.552 79.7904 125.79 79.2135C125.028 78.616 123.997 78.3172 122.699 78.3172H118.496V85.1167ZM140.86 88.5164C139.377 88.5164 138.068 88.1867 136.935 87.5274C135.802 86.8474 134.916 85.9099 134.277 84.7149C133.639 83.5198 133.319 82.129 133.319 80.5425C133.319 78.9354 133.628 77.524 134.246 76.3083C134.885 75.0927 135.771 74.1449 136.904 73.4649C138.058 72.785 139.387 72.445 140.891 72.445C142.375 72.445 143.652 72.785 144.724 73.4649C145.795 74.1242 146.619 75.0102 147.196 76.1229C147.794 77.2355 148.092 78.4615 148.092 79.8007C148.092 80.0068 148.092 80.2334 148.092 80.4807C148.092 80.7073 148.082 80.9649 148.062 81.2534H136.533C136.636 82.6751 137.1 83.7568 137.924 84.4985C138.748 85.2197 139.717 85.5803 140.829 85.5803C141.798 85.5803 142.56 85.3845 143.117 84.993C143.693 84.581 144.116 84.0246 144.384 83.3241H147.691C147.32 84.787 146.547 86.0233 145.373 87.0329C144.198 88.0219 142.694 88.5164 140.86 88.5164ZM140.86 75.2884C139.851 75.2884 138.954 75.5975 138.171 76.2156C137.389 76.8131 136.884 77.6579 136.657 78.7499H144.816C144.734 77.7197 144.332 76.8852 143.611 76.2465C142.89 75.6078 141.973 75.2884 140.86 75.2884ZM157.198 88.5164C155.982 88.5164 154.962 88.3103 154.138 87.8983C153.314 87.4656 152.696 86.8989 152.284 86.1984C151.872 85.4772 151.666 84.6943 151.666 83.8495C151.666 82.3454 152.212 81.1709 153.304 80.3262C154.416 79.4814 155.982 79.059 158.001 79.059H161.957V78.719C161.957 76.4113 160.886 75.2575 158.743 75.2575C157.857 75.2575 157.105 75.4532 156.487 75.8447C155.889 76.2156 155.488 76.8234 155.282 77.6682H152.006C152.17 76.0611 152.861 74.7939 154.076 73.8667C155.313 72.9189 156.868 72.445 158.743 72.445C161.01 72.445 162.658 73.0013 163.688 74.1139C164.718 75.2266 165.234 76.7616 165.234 78.719V88.1455H162.452L162.174 85.8893H161.957C161.504 86.6105 160.938 87.2286 160.258 87.7437C159.578 88.2588 158.558 88.5164 157.198 88.5164ZM157.816 85.7657C159.155 85.7657 160.155 85.3639 160.814 84.5604C161.494 83.7362 161.865 82.6957 161.927 81.4388H158.341C157.167 81.4388 156.332 81.6345 155.838 82.026C155.364 82.3969 155.127 82.9223 155.127 83.6022C155.127 84.2822 155.364 84.8179 155.838 85.2094C156.332 85.5803 156.992 85.7657 157.816 85.7657ZM175.142 88.5164C173.288 88.5164 171.877 87.9498 170.908 86.8165C169.96 85.6627 169.487 83.9937 169.487 81.8097V72.8159H172.763V81.4079C172.763 82.6648 173.031 83.6538 173.566 84.3749C174.123 85.0755 174.967 85.4257 176.101 85.4257C177.234 85.4257 178.182 85.0446 178.944 84.2822C179.706 83.5198 180.088 82.4175 180.088 80.9752V72.8159H183.364V88.1455H180.52L180.242 85.8584H180.088C179.675 86.6002 179.037 87.2286 178.171 87.7437C177.306 88.2588 176.296 88.5164 175.142 88.5164ZM196.085 88.1455C194.581 88.1455 193.386 87.7849 192.5 87.0638C191.614 86.322 191.171 85.0136 191.171 83.1387V75.5975H187.308V72.8159H189.595C190.645 72.8159 191.264 72.3008 191.449 71.2705L191.913 68.798H194.447V72.8159H200.505V75.5975H194.447V83.0768C194.447 83.8804 194.622 84.447 194.972 84.7767C195.343 85.0858 195.972 85.2403 196.858 85.2403H200.443V88.1455H196.085ZM207.477 94.9449L211.124 86.8783H210.228L204.263 72.8159H207.817L212.392 84.0349L217.244 72.8159H220.675L210.939 94.9449H207.477ZM230.243 88.3309C229.481 88.3309 228.832 88.0837 228.296 87.5892C227.761 87.0741 227.493 86.456 227.493 85.7348C227.493 85.0136 227.761 84.4058 228.296 83.9113C228.832 83.4168 229.481 83.1696 230.243 83.1696C231.026 83.1696 231.675 83.4168 232.191 83.9113C232.726 84.4058 232.994 85.0136 232.994 85.7348C232.994 86.456 232.726 87.0741 232.191 87.5892C231.675 88.0837 231.026 88.3309 230.243 88.3309Z" fill="white"/>
</svg>
