<svg width="112" height="53" fill="none" xmlns="http://www.w3.org/2000/svg"><g clip-path="url(#arrow-01-white__a)" fill-rule="evenodd" clip-rule="evenodd" fill="#fff"><path d="M45.511 9.823 37.04 6.769c3 .519 5.82 1.565 8.471 3.054Zm19.657 1.473c-3.364-.792-6.67-1.691-10.08-2.1 3.574-.295 6.866.801 10.08 2.1Zm-8.345 10.441c.018 1.338-.84 1.17-1.628 1.056-2.664-.385-4.033-2.45-5.323-4.437-.94-1.449-1.737-3.073-1.759-4.902-.009-.698.176-1.252 1.073-.754 2.45 1.36 4.652 3.013 6.241 5.372.757 1.124 1.282 2.357 1.396 3.665ZM55.101 10.78c2.167-.108 4.246.492 6.321 1.023 8.967 2.292 16.52 7.092 23.367 13.217 4.573 4.092 8.714 8.582 12.705 13.229.365.423.716.866 1.265 1.06.616.217 1.052.168.761-.658-.07-.204-.351-.394.032-.513 1.324-.409.966-1.38.731-2.262-.44-1.656-1.543-2.962-2.486-4.32-2.642-3.808-5.43-7.52-8.677-10.83-3.015-3.074-6.438-5.673-9.932-8.175-2.225-1.592-4.509-3.18-7.127-3.9-1.74-.478-3.145-1.547-4.842-2.033-3.253-.932-6.504-1.825-9.903-2.015-2.799-.156-5.442.402-7.876 1.803-.802.462-1.557.494-2.371.157a156.173 156.173 0 0 0-6.652-2.553C36.8 2.701 32.991 1.976 29.18 1.404 23.1.49 17.014.204 10.933 1.416 7.36 2.13 3.883 3.066 1.2 5.79.492 6.508-.031 7.3.001 8.366c.014.46.159.807.606 1 .528.226.575-.15.818-.496 1.67-2.364 4.333-2.673 6.864-3.197 6.972-1.445 13.909-.784 20.83.434 5.295.932 10.45 2.374 15.43 4.422.396.163.941.149.612.9-1.148 2.617-.963 5.294-.029 7.898 1.442 4.021 3.79 7.28 8.104 8.526 2.319.669 3.865-.09 5.225-2.076 3.466-5.062 1.564-10.513-2.388-13.776l-1.061-.875.09-.347Z"/><path d="M99.742 45.708c2.713.86 5.251 2.068 7.531 3.785l-7.531-3.785Zm5.609-11.47c.064 2.899.618 5.736 1.061 8.587.066.426.368.89-.164 1.263-.511.357-.906-.008-1.252-.237-1.888-1.248-4.034-1.868-6.09-2.725-1.3-.541-2.507-1.334-3.859-1.85-2.08-.792-4.105-1.743-6.129-2.68-1.026-.474-2.228-.445-3.12-1.349-.875-.886-1.824-.62-2.9.858-.551.754-.776 1.76.16 2.475a14.92 14.92 0 0 0 2.465 1.551c5.743 2.813 11.508 5.58 17.254 8.386 1.29.63 2.539 1.347 3.798 2.04 2.29 1.258 3.259.92 4.482-1.41.95-1.81 1.026-3.597.387-5.524-1.229-3.711-2.353-7.457-2.868-11.352-.103-.78-.097-1.575-.17-2.36-.083-.91-.507-1.143-1.284-.607-1.721 1.185-1.867 1.585-1.771 4.934Z"/></g><defs><clipPath id="arrow-01-white__a"><path fill="#fff" transform="matrix(1 0 0 -1 0 52.453)" d="M0 0h112v52H0z"/></clipPath></defs></svg>