<svg width="276" height="96" viewBox="0 0 276 96" fill="none" xmlns="http://www.w3.org/2000/svg">
<path d="M2.7496 44.9957C2.7496 26.485 14.1333 9.83667 31.885 6.96812C40.2696 5.61321 49.2329 4.94582 57.3775 5.92163C65.535 6.89898 72.6512 9.49632 77.6189 14.4658C82.5883 19.4368 85.185 26.5585 86.1614 34.7222C87.1362 42.8729 86.4676 51.8424 85.1119 60.2318C82.2438 77.9797 65.6092 89.3621 47.104 89.3621C22.6085 89.3621 2.7496 69.4927 2.7496 44.9957Z" stroke="#10584B" stroke-width="4.41522"/>
<path d="M114.756 26.9102V5.27559H118.033V14.2385H127.49V5.27559H130.766V26.9102H127.49V17.2364H118.033V26.9102H114.756ZM139.284 27.281C138.068 27.281 137.049 27.075 136.224 26.6629C135.4 26.2302 134.782 25.6636 134.37 24.963C133.958 24.2419 133.752 23.4589 133.752 22.6141C133.752 21.11 134.298 19.9356 135.39 19.0908C136.503 18.246 138.068 17.8236 140.088 17.8236H144.044V17.4837C144.044 15.176 142.972 14.0221 140.829 14.0221C139.943 14.0221 139.191 14.2179 138.573 14.6094C137.976 14.9802 137.574 15.5881 137.368 16.4328H134.092C134.257 14.8257 134.947 13.5585 136.163 12.6313C137.399 11.6835 138.954 11.2096 140.829 11.2096C143.096 11.2096 144.744 11.766 145.775 12.8786C146.805 13.9912 147.32 15.5263 147.32 17.4837V26.9102H144.538L144.26 24.654H144.044C143.59 25.3751 143.024 25.9933 142.344 26.5084C141.664 27.0235 140.644 27.281 139.284 27.281ZM139.902 24.5304C141.242 24.5304 142.241 24.1286 142.9 23.325C143.58 22.5008 143.951 21.4603 144.013 20.2034H140.428C139.253 20.2034 138.419 20.3992 137.924 20.7907C137.45 21.1615 137.213 21.687 137.213 22.3669C137.213 23.0468 137.45 23.5826 137.924 23.974C138.419 24.3449 139.078 24.5304 139.902 24.5304ZM152.902 26.9102L149.564 11.5805H152.778L154.633 22.336L156.827 11.5805H160.35L162.545 22.336L164.399 11.5805H167.613L164.275 26.9102H160.907L158.589 15.8456L156.271 26.9102H152.902ZM178.171 26.9102C176.667 26.9102 175.472 26.5496 174.586 25.8284C173.7 25.0867 173.257 23.7783 173.257 21.9033V14.3621H169.394V11.5805H171.681C172.732 11.5805 173.35 11.0654 173.535 10.0352L173.999 7.56267H176.533V11.5805H182.591V14.3621H176.533V21.8415C176.533 22.6451 176.708 23.2117 177.059 23.5413C177.43 23.8504 178.058 24.0049 178.944 24.0049H182.529V26.9102H178.171ZM187.4 26.9102V4.65746H190.676V13.8676C191.088 13.1052 191.748 12.4768 192.654 11.9823C193.561 11.4672 194.581 11.2096 195.714 11.2096C197.61 11.2096 199.052 11.7866 200.041 12.9404C201.03 14.0736 201.525 15.7117 201.525 17.8545V26.9102H198.248V18.3181C198.248 17.0407 197.939 16.0517 197.321 15.3511C196.703 14.6506 195.848 14.3003 194.756 14.3003C193.623 14.3003 192.654 14.6815 191.851 15.4438C191.068 16.2062 190.676 17.3085 190.676 18.7508V26.9102H187.4ZM212.33 27.281C210.867 27.281 209.558 26.9514 208.405 26.292C207.251 25.6327 206.344 24.7055 205.685 23.5104C205.026 22.2948 204.696 20.8731 204.696 19.2453C204.696 17.6176 205.026 16.2062 205.685 15.0111C206.344 13.7955 207.251 12.858 208.405 12.1987C209.558 11.5393 210.877 11.2096 212.361 11.2096C213.844 11.2096 215.153 11.5393 216.286 12.1987C217.44 12.858 218.336 13.7955 218.975 15.0111C219.634 16.2062 219.964 17.6176 219.964 19.2453C219.964 20.8731 219.634 22.2948 218.975 23.5104C218.315 24.7055 217.409 25.6327 216.255 26.292C215.122 26.9514 213.813 27.281 212.33 27.281ZM212.33 24.1595C213.113 24.1595 213.834 23.9843 214.493 23.6341C215.153 23.2838 215.678 22.7481 216.069 22.0269C216.482 21.2852 216.688 20.358 216.688 19.2453C216.688 18.1121 216.482 17.1849 216.069 16.4638C215.678 15.7426 215.153 15.2069 214.493 14.8566C213.854 14.5063 213.144 14.3312 212.361 14.3312C211.578 14.3312 210.857 14.5063 210.197 14.8566C209.538 15.2069 209.002 15.7426 208.59 16.4638C208.199 17.1849 208.003 18.1121 208.003 19.2453C208.003 20.9349 208.425 22.1815 209.27 22.985C210.135 23.768 211.155 24.1595 212.33 24.1595ZM223.351 26.9102V24.0668H227.091V15.4438C227.091 14.7639 226.761 14.4239 226.102 14.4239H223.66V11.5805H227.338C228.183 11.5805 228.873 11.8278 229.409 12.3223C229.945 12.7962 230.213 13.4658 230.213 14.3312V14.7021H230.367C230.594 13.5482 231.078 12.6829 231.82 12.1059C232.582 11.5084 233.684 11.2096 235.127 11.2096H237.507V14.6712H234.169C232.953 14.6712 232.015 15.0936 231.356 15.9383C230.697 16.7831 230.367 17.7927 230.367 18.9672V24.0668H235.127V26.9102H223.351ZM241.296 26.9102V11.5805H244.139L244.417 13.8676H244.572C244.984 13.1258 245.623 12.4974 246.488 11.9823C247.354 11.4672 248.353 11.2096 249.486 11.2096C251.361 11.2096 252.773 11.7763 253.72 12.9095C254.668 14.0427 255.142 15.7117 255.142 17.9164V26.9102H251.866V18.3181C251.866 17.0407 251.598 16.0517 251.062 15.3511C250.527 14.6506 249.682 14.3003 248.528 14.3003C247.395 14.3003 246.447 14.6815 245.685 15.4438C244.943 16.2062 244.572 17.3085 244.572 18.7508V26.9102H241.296ZM266.256 27.281C264.773 27.281 263.464 26.9514 262.331 26.292C261.198 25.6121 260.312 24.6746 259.673 23.4795C259.035 22.2845 258.715 20.8937 258.715 19.3072C258.715 17.7 259.024 16.2886 259.642 15.073C260.281 13.8573 261.167 12.9095 262.3 12.2296C263.454 11.5496 264.783 11.2096 266.287 11.2096C267.771 11.2096 269.048 11.5496 270.12 12.2296C271.191 12.8889 272.015 13.7749 272.592 14.8875C273.19 16.0002 273.488 17.2261 273.488 18.5654C273.488 18.7714 273.488 18.9981 273.488 19.2453C273.488 19.472 273.478 19.7295 273.458 20.018H261.929C262.032 21.4397 262.496 22.5214 263.32 23.2632C264.144 23.9843 265.113 24.3449 266.225 24.3449C267.194 24.3449 267.956 24.1492 268.513 23.7577C269.089 23.3456 269.512 22.7893 269.78 22.0887H273.087C272.716 23.5516 271.943 24.7879 270.769 25.7975C269.594 26.7865 268.09 27.281 266.256 27.281ZM266.256 14.053C265.247 14.053 264.35 14.3621 263.567 14.9802C262.785 15.5778 262.28 16.4225 262.053 17.5146H270.212C270.13 16.4844 269.728 15.6499 269.007 15.0111C268.286 14.3724 267.369 14.053 266.256 14.053ZM122.978 58.281C121.453 58.281 120.114 58.0029 118.96 57.4466C117.826 56.8902 116.93 56.097 116.271 55.0668C115.632 54.0365 115.302 52.8106 115.282 51.3889H118.743C118.764 52.4809 119.135 53.4184 119.856 54.2014C120.598 54.9637 121.628 55.3449 122.947 55.3449C124.162 55.3449 125.11 55.0668 125.79 54.5104C126.47 53.9335 126.81 53.1918 126.81 52.2852C126.81 51.5228 126.604 50.8944 126.192 50.3999C125.8 49.8848 125.182 49.4315 124.337 49.04C123.493 48.6279 122.401 48.2055 121.061 47.7728C119.269 47.1959 117.95 46.4026 117.105 45.393C116.261 44.3628 115.838 43.1059 115.838 41.6224C115.838 39.9123 116.456 38.5318 117.693 37.4809C118.929 36.4301 120.629 35.9047 122.792 35.9047C124.894 35.9047 126.583 36.4507 127.861 37.5428C129.138 38.6142 129.798 40.108 129.839 42.0242H126.346C126.346 41.5091 126.202 41.0146 125.914 40.5407C125.625 40.0462 125.213 39.6444 124.677 39.3353C124.142 39.0057 123.482 38.8408 122.699 38.8408C121.731 38.8202 120.917 39.0572 120.258 39.5517C119.598 40.0256 119.269 40.6746 119.269 41.4988C119.269 42.5084 119.671 43.3017 120.474 43.8786C121.278 44.4349 122.586 45.0118 124.399 45.6094C125.533 45.9802 126.532 46.4335 127.397 46.9692C128.283 47.4844 128.973 48.154 129.468 48.9782C129.983 49.7817 130.241 50.812 130.241 52.0688C130.241 53.2227 129.952 54.2735 129.375 55.2213C128.798 56.1485 127.964 56.8902 126.872 57.4466C125.8 58.0029 124.502 58.281 122.978 58.281ZM134.432 57.9102V35.6575H137.708V49.0091L143.58 42.5805H147.691L141.293 49.38V49.6272L148.525 57.9102H144.538L137.708 50.029V57.9102H134.432ZM158.28 40.2316C157.558 40.2316 156.951 40.005 156.456 39.5517C155.982 39.0778 155.745 38.5009 155.745 37.8209C155.745 37.141 155.982 36.5744 156.456 36.1211C156.951 35.6678 157.558 35.4411 158.28 35.4411C159.021 35.4411 159.629 35.6678 160.103 36.1211C160.598 36.5744 160.845 37.141 160.845 37.8209C160.845 38.5009 160.598 39.0778 160.103 39.5517C159.629 40.005 159.021 40.2316 158.28 40.2316ZM152.129 57.9102V55.0668H156.951V46.4438C156.951 45.7639 156.621 45.4239 155.962 45.4239H152.562V42.5805H156.549C157.826 42.5805 158.753 42.8793 159.33 43.4768C159.928 44.0537 160.227 44.9809 160.227 46.2584V55.0668H165.048V57.9102H152.129ZM169.641 57.9102V42.5805H172.484L172.763 44.8676H172.917C173.329 44.1258 173.968 43.4974 174.833 42.9823C175.699 42.4672 176.698 42.2096 177.831 42.2096C179.706 42.2096 181.118 42.7763 182.066 43.9095C183.013 45.0427 183.487 46.7117 183.487 48.9164V57.9102H180.211V49.3181C180.211 48.0407 179.943 47.0517 179.408 46.3511C178.872 45.6506 178.027 45.3003 176.873 45.3003C175.74 45.3003 174.792 45.6815 174.03 46.4438C173.288 47.2062 172.917 48.3085 172.917 49.7508V57.9102H169.641ZM210.661 58.2501C208.621 58.2501 206.973 57.6629 205.716 56.4885C204.48 55.2934 203.861 53.6657 203.861 51.6052C203.861 50.3278 204.191 49.1636 204.85 48.1128C205.51 47.0414 206.458 46.1451 207.694 45.4239C206.684 43.9404 206.179 42.529 206.179 41.1897C206.179 40.2007 206.396 39.3147 206.828 38.5318C207.282 37.7282 207.941 37.0895 208.806 36.6156C209.672 36.1417 210.712 35.9047 211.928 35.9047C213.741 35.9047 215.132 36.3992 216.1 37.3882C217.089 38.3566 217.584 39.5723 217.584 41.0352H214.431C214.411 40.314 214.153 39.7474 213.659 39.3353C213.185 38.9232 212.598 38.7172 211.897 38.7172C211.114 38.7172 210.496 38.9439 210.043 39.3971C209.589 39.8504 209.363 40.4377 209.363 41.1588C209.363 41.777 209.528 42.4054 209.857 43.0441C210.208 43.6622 210.692 44.3628 211.31 45.1458L215.668 50.678L217.491 46.6911H220.891L217.986 52.8724C217.903 53.0372 217.831 53.1918 217.769 53.336L221.354 57.9102H217.584L216.039 55.963C215.379 56.6842 214.617 57.2508 213.751 57.6629C212.886 58.0544 211.856 58.2501 210.661 58.2501ZM207.137 51.5125C207.137 52.6045 207.467 53.5111 208.126 54.2323C208.786 54.9534 209.651 55.314 210.723 55.314C211.444 55.314 212.072 55.1595 212.608 54.8504C213.144 54.5413 213.638 54.0984 214.091 53.5214L209.394 47.6801C207.89 48.6279 207.137 49.9054 207.137 51.5125ZM115.22 88.9102V67.2756H122.947C125.193 67.2756 126.892 67.7907 128.046 68.8209C129.2 69.8511 129.777 71.1801 129.777 72.8079C129.777 74.0647 129.447 75.0846 128.788 75.8676C128.129 76.6506 127.366 77.2172 126.501 77.5675V77.7838C127.531 78.1547 128.417 78.7625 129.159 79.6073C129.901 80.4315 130.272 81.5235 130.272 82.8834C130.272 83.996 129.993 85.0159 129.437 85.9431C128.901 86.8497 128.108 87.5709 127.057 88.1066C126.006 88.6423 124.719 88.9102 123.194 88.9102H115.22ZM118.496 76.3003H122.545C123.802 76.3003 124.76 76.053 125.419 75.5585C126.079 75.0434 126.408 74.2708 126.408 73.2405C126.408 71.2007 125.1 70.1808 122.483 70.1808H118.496V76.3003ZM118.496 85.8813H122.761C124.1 85.8813 125.131 85.5929 125.852 85.0159C126.573 84.439 126.934 83.5942 126.934 82.4816C126.934 81.3896 126.552 80.5551 125.79 79.9782C125.028 79.3806 123.997 79.0819 122.699 79.0819H118.496V85.8813ZM140.86 89.281C139.377 89.281 138.068 88.9514 136.935 88.292C135.802 87.6121 134.916 86.6746 134.277 85.4795C133.639 84.2845 133.319 82.8937 133.319 81.3072C133.319 79.7 133.628 78.2886 134.246 77.073C134.885 75.8573 135.771 74.9095 136.904 74.2296C138.058 73.5496 139.387 73.2096 140.891 73.2096C142.375 73.2096 143.652 73.5496 144.724 74.2296C145.795 74.8889 146.619 75.7749 147.196 76.8875C147.794 78.0002 148.092 79.2261 148.092 80.5654C148.092 80.7714 148.092 80.9981 148.092 81.2453C148.092 81.472 148.082 81.7295 148.062 82.018H136.533C136.636 83.4397 137.1 84.5214 137.924 85.2632C138.748 85.9843 139.717 86.3449 140.829 86.3449C141.798 86.3449 142.56 86.1492 143.117 85.7577C143.693 85.3456 144.116 84.7893 144.384 84.0887H147.691C147.32 85.5516 146.547 86.7879 145.373 87.7975C144.198 88.7865 142.694 89.281 140.86 89.281ZM140.86 76.053C139.851 76.053 138.954 76.3621 138.171 76.9802C137.389 77.5778 136.884 78.4225 136.657 79.5146H144.816C144.734 78.4844 144.332 77.6499 143.611 77.0111C142.89 76.3724 141.973 76.053 140.86 76.053ZM157.198 89.281C155.982 89.281 154.962 89.075 154.138 88.6629C153.314 88.2302 152.696 87.6636 152.284 86.963C151.872 86.2419 151.666 85.4589 151.666 84.6141C151.666 83.11 152.212 81.9356 153.304 81.0908C154.416 80.246 155.982 79.8236 158.001 79.8236H161.957V79.4837C161.957 77.176 160.886 76.0221 158.743 76.0221C157.857 76.0221 157.105 76.2179 156.487 76.6094C155.889 76.9802 155.488 77.5881 155.282 78.4328H152.006C152.17 76.8257 152.861 75.5585 154.076 74.6313C155.313 73.6835 156.868 73.2096 158.743 73.2096C161.01 73.2096 162.658 73.766 163.688 74.8786C164.718 75.9912 165.234 77.5263 165.234 79.4837V88.9102H162.452L162.174 86.654H161.957C161.504 87.3751 160.938 87.9933 160.258 88.5084C159.578 89.0235 158.558 89.281 157.198 89.281ZM157.816 86.5304C159.155 86.5304 160.155 86.1286 160.814 85.325C161.494 84.5008 161.865 83.4603 161.927 82.2034H158.341C157.167 82.2034 156.332 82.3992 155.838 82.7907C155.364 83.1615 155.127 83.687 155.127 84.3669C155.127 85.0468 155.364 85.5826 155.838 85.974C156.332 86.3449 156.992 86.5304 157.816 86.5304ZM175.142 89.281C173.288 89.281 171.877 88.7144 170.908 87.5812C169.96 86.4273 169.487 84.7584 169.487 82.5743V73.5805H172.763V82.1725C172.763 83.4294 173.031 84.4184 173.566 85.1396C174.123 85.8401 174.967 86.1904 176.101 86.1904C177.234 86.1904 178.182 85.8092 178.944 85.0468C179.706 84.2845 180.088 83.1821 180.088 81.7398V73.5805H183.364V88.9102H180.52L180.242 86.6231H180.088C179.675 87.3648 179.037 87.9933 178.171 88.5084C177.306 89.0235 176.296 89.281 175.142 89.281ZM196.085 88.9102C194.581 88.9102 193.386 88.5496 192.5 87.8284C191.614 87.0867 191.171 85.7783 191.171 83.9033V76.3621H187.308V73.5805H189.595C190.645 73.5805 191.264 73.0654 191.449 72.0352L191.913 69.5627H194.447V73.5805H200.505V76.3621H194.447V83.8415C194.447 84.6451 194.622 85.2117 194.972 85.5413C195.343 85.8504 195.972 86.0049 196.858 86.0049H200.443V88.9102H196.085ZM207.477 95.7096L211.124 87.643H210.228L204.263 73.5805H207.817L212.392 84.7996L217.244 73.5805H220.675L210.939 95.7096H207.477ZM230.243 89.0956C229.481 89.0956 228.832 88.8483 228.296 88.3538C227.761 87.8387 227.493 87.2206 227.493 86.4994C227.493 85.7783 227.761 85.1705 228.296 84.676C228.832 84.1815 229.481 83.9342 230.243 83.9342C231.026 83.9342 231.675 84.1815 232.191 84.676C232.726 85.1705 232.994 85.7783 232.994 86.4994C232.994 87.2206 232.726 87.8387 232.191 88.3538C231.675 88.8483 231.026 89.0956 230.243 89.0956Z" fill="#10584B"/>
</svg>
