<svg width="82" height="73" viewBox="0 0 82 73" fill="none" xmlns="http://www.w3.org/2000/svg">
<g clip-path="url(#clip0_724_55854)">
<path fill-rule="evenodd" clip-rule="evenodd" d="M35.8985 46.5305C36.4635 46.5305 36.9601 46.6166 37.412 46.5119C38.2487 46.318 39.3745 44.6132 39.3103 43.7475C39.3008 43.6149 39.2573 43.4219 39.1658 43.3689C38.7462 43.1278 38.3034 42.9265 37.8693 42.7107C37.6117 43.1543 36.8139 42.6569 36.705 43.3917C36.6603 43.6945 35.9685 43.501 36.1529 44.0382C35.7059 44.8327 36.0332 45.6785 35.8985 46.5305ZM33.6904 43.0885C33.8263 42.8557 34.0027 42.6407 34.0868 42.3943C34.3917 41.5013 35.1832 41.1579 35.9433 40.9433C36.4714 40.7942 37.0334 40.6161 37.6407 40.6588C39.02 40.7561 39.9888 41.4035 40.6788 42.5728C41.0007 43.1179 41.303 43.6692 41.4389 44.283C41.5304 44.6985 41.6427 45.1798 41.5205 45.5588C41.0462 47.0304 40.2373 48.2656 38.7064 48.8504C38.2847 49.0111 37.8461 49.1292 37.4129 49.2597C37.3441 49.2808 37.2517 49.2887 37.1908 49.2588C36.0808 48.7195 35.008 48.1053 34.3635 47.0118C34.0868 46.5425 33.8304 45.9995 33.8984 45.4092C33.9804 44.6935 33.6747 43.9405 34.1021 43.2587C33.9742 43.2057 33.8458 43.1527 33.6904 43.0885Z" fill="#10584B"/>
<path fill-rule="evenodd" clip-rule="evenodd" d="M0.685374 56.3506C0.326676 56.269 0.117504 56.1186 0.24632 55.6945C0.301823 55.6688 0.399989 55.6427 0.476616 55.5868C1.2081 55.0583 2.10774 54.9792 2.93117 54.717C3.29029 54.6026 3.86023 54.705 4.16094 54.9352C5.09579 55.6518 6.13295 56.2739 6.57531 57.5037C6.94064 58.5189 6.79318 59.822 6.14786 60.6525C5.77342 61.1346 5.24904 61.4374 4.86342 61.9274C4.23135 61.8251 3.56531 62.0819 2.93656 61.7016C2.64289 61.5239 1.36425 60.848 1.11407 60.6612C0.531291 60.2258 0.303894 59.5888 0.0860246 58.9431C0.0408767 58.8097 -0.0307801 58.6399 0.0143678 58.5297C0.30348 57.8222 0.0976222 56.9723 0.685374 56.3506Z" fill="#10584B"/>
<path fill-rule="evenodd" clip-rule="evenodd" d="M51.7098 33.0789C52.6074 33.935 54.1068 34.4126 55.3394 34.3658C55.9301 34.3439 56.3762 34.1363 56.7676 33.7321C56.9942 33.4981 57.2265 33.2702 57.4622 33.0342C57.3284 32.8498 57.2083 32.7479 57.1706 32.6212C56.9958 32.0397 56.6777 31.6747 56.0204 31.625C55.7222 31.6027 55.4397 31.408 55.1419 31.3185C54.9472 31.2601 54.6047 31.162 54.5566 31.2336C54.2845 31.642 54.1366 31.0017 53.78 31.3123C53.5745 31.5053 53.2312 31.828 52.8857 32.1523C52.6065 31.9328 52.3866 31.7597 52.1919 31.6068C51.4845 31.9601 51.8423 32.557 51.7098 33.0789ZM58.7206 33.817C58.9368 33.892 59.0677 33.9375 59.2068 33.9856C59.0946 34.3393 58.9898 34.6707 58.8842 35.0037C58.7069 35.024 58.5292 35.0451 58.2803 35.0737C58.3627 35.1843 58.4145 35.2547 58.4948 35.3628C58.1121 35.8337 57.6722 36.1953 56.9934 36.1655C56.8239 36.1581 56.6467 36.226 56.4802 36.2807C56.0179 36.4327 55.5677 36.4646 55.1079 36.2575C54.9505 36.1866 54.6523 36.1063 54.6018 36.1713C54.1784 36.7185 53.8301 36.0147 53.4151 36.1096C53.2407 36.1494 53.0754 35.6937 52.7026 35.6809C52.5034 35.6743 52.327 35.3806 52.1153 35.2613C51.8676 35.1217 51.7703 34.7489 51.4033 34.8028C51.231 34.2457 50.6739 33.9885 50.3943 33.5262C49.7718 32.4973 49.7709 31.0186 50.2829 30.0233C50.7356 29.1415 51.5893 28.8834 52.3738 29.4766C52.754 29.7644 53.0427 29.9935 53.476 29.646C53.6251 29.8825 53.7638 29.7872 53.8723 29.6178C54.0451 29.3482 54.3081 29.3324 54.5649 29.3859C55.4579 29.5735 56.3646 29.8266 57.0832 30.365C57.7153 30.8389 58.168 31.5517 58.6999 32.1589C58.6568 32.6978 59.3415 33.2069 58.7206 33.817Z" fill="#10584B"/>
<path fill-rule="evenodd" clip-rule="evenodd" d="M66.95 59.5177C67.2897 59.3404 67.6707 59.0472 68.2283 59.2742C68.169 59.3545 68.1189 59.4237 68.0166 59.5641C68.2365 59.6213 68.594 59.6329 68.6205 59.7331C68.8052 60.4261 69.5873 60.6224 69.8213 61.2648C70.2164 62.3513 70.5631 63.4352 69.9828 64.5606C69.9182 64.6857 69.8523 64.7143 69.9447 64.8912C70.2011 65.3795 69.9625 65.7306 69.5148 65.9841C69.2033 66.1602 69.3756 66.3359 69.557 66.5119C69.1677 67.0119 68.7771 67.5135 68.3931 68.0064H67.1517C66.9223 67.7595 66.6402 67.4617 66.3639 67.1585C66.115 66.8864 65.7894 66.7161 65.5649 66.3889C65.0563 65.6471 64.9598 64.8463 65.13 64.0216C65.263 63.3805 65.5778 62.7786 65.7356 62.1403C65.8387 61.7232 65.9406 61.3887 66.3569 61.1609C66.5242 61.0693 66.6394 60.7342 66.6344 60.5131C66.6274 60.1896 66.8527 60.0682 66.9935 59.8632C67.0399 59.7965 66.9703 59.6507 66.95 59.5177Z" fill="#10584B"/>
<path fill-rule="evenodd" clip-rule="evenodd" d="M78.3926 24.0627C78.3396 24.0097 78.2625 23.9662 78.2372 23.902C78.0525 23.4331 77.5571 23.5114 77.2125 23.3855C77.0282 23.318 76.7022 23.624 76.4458 23.7711C76.3315 23.8365 76.1037 24.211 75.9517 24.4823C75.8341 24.6931 75.7052 25.0373 75.5466 25.0576C75.19 25.1044 75.2629 25.3028 75.2301 25.5157C75.2082 25.6623 75.1104 25.7974 75.0541 25.9204C75.8452 26.7248 76.5896 26.3876 77.4047 26.009C78.294 25.5961 78.4489 24.906 78.3926 24.0627ZM76.3075 28.0245C76.1368 28.2739 75.9865 28.4917 75.8316 28.7183C75.7301 28.6239 75.6402 28.4785 75.5739 28.4884C74.7691 28.609 74.5032 27.8348 73.9619 27.5254C73.9006 27.4906 73.8587 27.2703 73.896 27.2384C74.4589 26.7579 73.8587 26.4029 73.7842 25.9875C73.6947 26.0674 73.6156 26.1391 73.5356 26.2099C73.5087 26.183 73.4582 26.1552 73.4594 26.13C73.4855 25.6375 73.2175 25.1011 73.7129 24.6749C73.8256 24.5775 73.8045 24.3402 73.8877 24.1915C74.1019 23.8104 74.159 23.3072 74.5513 23.0682C74.9535 22.8222 74.7961 22.3214 75.197 22.0327C75.8775 21.5423 76.9412 21.2938 77.7385 21.5916C78.8962 22.0244 79.6335 22.9054 80.0651 23.9707C80.4122 24.8281 80.5762 25.7998 80.4151 26.7409C80.3207 27.2889 79.839 27.6654 79.4115 27.9947C79.2831 28.0933 78.9621 27.9417 78.6614 27.8936C78.6809 27.9715 78.6842 28.1401 78.7625 28.2606C78.8817 28.4454 78.9298 28.6185 78.6991 28.6926C78.4646 28.7684 78.3785 28.6061 78.393 28.3749C78.3955 28.3372 78.2899 28.2925 78.1726 28.2051C77.9958 28.3526 77.8048 28.512 77.5749 28.7038C77.5389 28.5791 77.5037 28.4569 77.437 28.2258C77.14 28.5013 76.8729 28.7485 76.4814 29.111C76.4073 28.6496 76.3601 28.353 76.3075 28.0245Z" fill="#10584B"/>
<path fill-rule="evenodd" clip-rule="evenodd" d="M19.4041 39.6768C19.591 39.8346 19.6738 39.9046 19.7753 39.99C19.8465 39.8462 19.8999 39.594 19.9948 39.5774C20.2359 39.5352 20.5581 39.5099 20.7358 39.6358C21.2689 40.0148 21.8293 40.4054 22.2249 40.9124C22.5993 41.3933 22.8482 42.0067 23.0168 42.6007C23.1141 42.9445 23.0591 43.3384 22.8582 43.7538C22.4456 44.6042 22.0323 45.3671 21.1715 45.8675C20.7909 46.0887 20.363 46.0986 20.0027 46.3219C19.8602 46.4105 19.687 46.449 19.521 46.5128C19.4592 46.4035 19.3797 46.2622 19.3002 46.1214C19.1726 46.3036 19.0869 46.2821 18.8918 46.1475C18.5414 45.9052 17.86 45.2855 17.5647 45.0441C16.6141 44.2678 17.1617 43.3023 17.2031 42.4172C17.213 42.1952 17.5676 41.9889 17.7772 41.7611C18.5538 42.1786 18.9552 42.8455 19.2269 43.5823C19.9886 43.4875 20.112 42.7767 20.5304 42.3807C20.6227 42.2933 20.5602 42.0415 20.5776 41.6816C20.2123 42.0465 19.9699 42.2888 19.7666 42.4917C19.1937 42.4512 19.2629 41.7607 18.7804 41.7188C18.7725 41.2715 18.6959 40.8097 18.7828 40.3818C18.8325 40.1387 19.1511 39.9506 19.4041 39.6768Z" fill="#10584B"/>
<path fill-rule="evenodd" clip-rule="evenodd" d="M62.5645 10.3127C62.888 9.98926 63.1278 9.74944 63.4074 9.46985H64.8074C64.9532 8.85891 64.5017 9.10618 64.2105 9.02541C64.2416 8.94672 64.2503 8.85269 64.3016 8.80837C64.6583 8.50186 64.1301 8.38257 64.1807 8.0711C64.4197 7.50323 65.0857 7.39968 65.5861 7.09027C65.7277 7.00246 66.004 7.05092 66.1846 7.12216C67.1012 7.48417 67.4334 8.30678 67.8025 9.13601C68.0402 9.66908 67.819 10.2987 68.2349 10.7646C68.07 11.3743 68.0062 12.0387 67.7122 12.578C67.4003 13.1508 66.733 13.4627 66.1059 13.5253C65.7584 13.5601 65.4552 13.9681 65.1139 13.7034C64.8243 13.4789 64.4168 13.6052 64.1533 13.2503C63.9657 12.9972 63.549 12.9802 63.4359 12.5378C63.38 12.3195 62.9629 12.2848 62.7745 11.9381C62.4704 11.3789 62.6958 10.845 62.5645 10.3127Z" fill="#10584B"/>
<path fill-rule="evenodd" clip-rule="evenodd" d="M58.594 45.699C58.7344 46.259 58.8578 46.7299 58.9676 47.2037C58.9924 47.3102 59.0194 47.4792 58.9639 47.531C58.4664 47.9916 58.9287 48.3701 59.0496 48.7769C59.919 48.791 59.895 48.7363 60.3411 48.1013C60.8717 47.3454 60.7805 46.5232 60.7656 45.7002C60.7631 45.5507 60.6202 45.3705 60.4927 45.2628C60.2379 45.0474 59.8184 45.38 59.5864 45.0213L59.3499 45.3829C58.9108 45.0897 58.7998 45.5602 58.594 45.699ZM57.5614 46.4238C57.4259 46.1608 57.2822 45.882 57.165 45.6542C57.2926 44.9791 58.0609 45.1659 58.3111 44.6415C58.5563 44.1266 59.3056 44.3462 59.7069 43.8268C59.5479 43.7199 59.3938 43.6168 59.2368 43.5111C59.2592 43.4826 59.2907 43.4026 59.3342 43.3947C60.095 43.256 60.6501 43.6627 61.1678 44.125C61.599 44.5094 61.8459 45.035 62.1698 45.5001C62.3516 45.7615 62.0347 46.0021 62.3098 46.1687C62.5558 46.3182 62.6316 46.5613 62.5856 46.8401C62.5347 47.1462 62.8238 47.4759 62.772 47.6349C62.6494 48.0094 62.6399 48.4012 62.5144 48.7645C62.28 49.4425 61.9362 50.0601 61.4047 50.5575C61.0999 50.8429 60.6712 50.939 60.134 50.845C58.8375 50.6184 58.8222 50.6321 58.2378 49.9897C57.7797 49.4864 57.4827 48.9115 57.3597 48.2078C57.2892 47.8085 57.0523 47.4564 57.3336 47.0613C56.9566 46.6992 57.5266 46.7079 57.5614 46.4238Z" fill="#10584B"/>
<path fill-rule="evenodd" clip-rule="evenodd" d="M27.2758 15.7852C28.3038 16.3643 28.5408 16.8473 27.9758 17.7295C27.6846 18.1847 28.045 18.6975 27.6337 19.0711C27.5728 19.1262 27.7331 19.4277 27.7939 19.6141C27.9625 20.1265 28.129 20.1725 28.6866 20.0254C29.751 19.7454 30.2551 18.9924 30.5115 17.9718C30.1147 17.8592 29.7154 17.7515 29.3195 17.6322C28.8361 17.4868 29.0117 16.9438 28.8137 16.6944C29.0415 16.4666 29.2917 16.2164 29.5423 15.9663C30.2307 15.5815 30.6582 16.3336 31.2857 16.5039C31.7463 17.2474 32.3891 17.8923 32.3228 18.8884C32.2383 20.146 31.6966 21.1943 30.3226 21.6976C29.1761 22.1184 28.269 21.9419 27.2853 21.0676C26.686 20.5349 26.1972 19.9861 26.1761 19.04C26.1471 17.7908 26.3861 16.6932 27.2758 15.7852Z" fill="#10584B"/>
<path fill-rule="evenodd" clip-rule="evenodd" d="M25.6993 62.0915C24.7193 62.3794 24.1473 61.7187 23.4883 61.3248C22.884 60.9636 22.8053 60.2512 22.6264 59.6659C22.4615 59.1242 22.7946 58.5609 22.9909 58.0365C23.1562 57.5949 23.4291 57.1928 23.6528 56.7761C23.5505 56.7388 23.42 56.6916 23.2626 56.6344C23.4291 56.4596 23.5757 56.3051 23.758 56.1129C23.524 56.0707 23.3181 56.0334 22.9797 55.9721C23.1984 55.8093 23.3529 55.5989 23.4929 55.6084C23.8839 55.6349 24.2666 55.4995 24.6779 55.724C25.725 56.2952 26.2602 57.2516 26.6462 58.2775C27.1876 59.7173 26.898 61.0262 25.6993 62.0915Z" fill="#10584B"/>
<path fill-rule="evenodd" clip-rule="evenodd" d="M38.2436 67.4499C38.1359 67.6661 38.0435 67.8512 37.9366 68.0662C38.6797 68.83 38.9866 69.7508 38.8682 70.8169C38.8396 71.0696 38.8466 71.2879 38.6574 71.5244C38.2987 71.9742 38.2498 72.6303 37.5535 72.868C37.252 72.9712 36.9231 73.0561 36.7201 72.9521C36.1552 72.6618 35.5057 72.4377 35.1553 71.8566C34.9801 71.5662 34.8177 71.2655 34.7809 70.8836C34.6587 69.6294 35.1681 68.5885 35.806 67.5903C35.9493 67.3658 36.192 67.2034 36.4811 67.0725C36.8142 66.9222 37.02 66.8 37.3535 67.0489C37.5962 67.2308 37.9164 67.3082 38.2436 67.4499Z" fill="#10584B"/>
<path fill-rule="evenodd" clip-rule="evenodd" d="M78.9721 41.5727C78.526 41.2293 78.2642 40.6097 77.5688 40.6354C77.3944 40.3334 77.1185 40.0484 77.0659 39.7266C76.9392 38.9467 77.1219 38.2504 77.9279 37.8685C78.0232 37.8233 78.0886 37.7144 78.1922 37.6109C78.0513 37.5632 77.9258 37.5206 77.9134 37.5164C78.1097 37.3201 78.3516 37.0782 78.5931 36.8367C78.5409 36.775 78.4887 36.7137 78.4365 36.652C78.5401 36.6379 78.6482 36.5981 78.7459 36.6151C79.1995 36.6934 79.7218 36.3848 80.1066 36.8479C80.607 37.4497 80.9764 38.105 81.1226 38.897C81.3169 39.9482 80.3017 41.1104 79.5309 41.4853C79.3345 41.5806 79.0906 41.1954 78.9721 41.5727Z" fill="#10584B"/>
<path fill-rule="evenodd" clip-rule="evenodd" d="M49.0303 55.3238C49.0303 55.6353 49.0108 55.789 49.0336 55.936C49.1512 56.7023 48.5117 56.9736 48.0669 57.3112C47.6245 57.6467 47.2016 57.1538 46.7878 57.0316C46.4013 56.9177 46.0828 56.5466 45.7573 56.2628C45.2084 55.7857 45.003 54.6516 45.3509 53.9723C45.43 53.8178 45.3455 53.5548 45.7125 53.5204C45.9316 53.4997 46.1387 53.1505 46.3148 52.9215C46.7762 52.3238 47.1805 52.2554 47.6746 52.7773C47.9973 53.1182 48.3713 53.3974 48.6016 53.8547C48.8683 54.384 49.1678 54.8649 49.0303 55.3238Z" fill="#10584B"/>
<path fill-rule="evenodd" clip-rule="evenodd" d="M36.7219 29.6066C37.2102 30.1314 37.7545 30.5849 38.0109 31.3235C38.3286 32.238 38.1554 32.7371 37.3776 33.2702C36.4912 33.8778 35.8985 33.7726 35.1247 32.9836C35.0195 32.8763 34.9127 32.7711 34.8277 32.6866C34.6993 32.2906 34.9934 31.8338 34.5722 31.5244C34.3382 30.4814 35.0431 29.6269 36.1557 29.607C36.3433 29.6037 36.5309 29.6066 36.7219 29.6066Z" fill="#10584B"/>
<path fill-rule="evenodd" clip-rule="evenodd" d="M47.2233 17.9965C47.4266 17.8378 47.5509 17.7409 47.6752 17.644C47.5298 17.5218 47.3844 17.3992 47.2423 17.2799C47.3003 17.2153 47.3703 17.137 47.4685 17.0281C47.2125 16.9717 46.9847 16.922 46.7109 16.8624C47.0311 16.0029 47.8176 15.9404 48.434 15.6596C48.5545 15.6049 48.8142 15.7635 48.9633 15.882C49.5676 16.3604 50.0079 16.9717 50.314 17.6775C50.3542 17.7707 50.4081 17.9393 50.3699 17.972C49.8365 18.4272 50.5406 19.3083 49.8414 19.6131C49.7043 19.6728 49.3966 19.3211 49.0283 19.2954C49.1779 19.459 49.3266 19.623 49.4968 19.8099C49.2226 19.9917 48.9637 20.1806 48.6862 20.3367C48.6013 20.3852 48.465 20.3533 48.354 20.3409C48.2878 20.3334 48.1672 20.2833 48.1697 20.2671C48.2612 19.65 47.5252 20.1085 47.4432 19.7034C47.4026 19.5029 47.2518 19.3194 47.2332 19.1206C47.1984 18.7495 47.2233 18.373 47.2233 17.9965Z" fill="#10584B"/>
<path fill-rule="evenodd" clip-rule="evenodd" d="M48.8272 1.44626V0.949219H49.8337C50.344 1.71549 51.0423 2.44159 50.7954 3.59596C50.6339 3.60632 50.4314 3.61874 50.1476 3.63656V2.7046C49.9666 2.73898 49.8275 2.72407 49.7765 2.78413C49.6912 2.88395 49.6825 3.04549 49.6063 3.1565C49.4654 3.36111 49.3884 3.31514 49.1995 3.01153C49.072 2.80608 48.8968 2.62963 48.7207 2.41342C48.9523 2.30656 49.1055 2.23614 49.2691 2.16076C48.7936 1.9259 48.8019 1.93419 49.1937 1.52703C49.2617 1.45661 49.2231 1.28389 49.2414 1.06395C49.0732 1.21969 48.9945 1.29176 48.8272 1.44626Z" fill="#10584B"/>
</g>
<defs>
<clipPath id="clip0_724_55854">
<rect width="82" height="73" fill="white"/>
</clipPath>
</defs>
</svg>
