<svg width="79" height="59" viewBox="0 0 79 59" fill="none" xmlns="http://www.w3.org/2000/svg">
<g clip-path="url(#clip0_724_55813)">
<path fill-rule="evenodd" clip-rule="evenodd" d="M64.5944 6.91758C62.4514 7.13404 60.3491 7.55265 58.3039 8.23233C60.4009 7.79403 62.4976 7.35581 64.5944 6.91758ZM67.2282 8.24995C65.5558 8.22481 57.3253 10.328 55.7305 11.1603C59.605 10.2143 63.3418 8.93884 67.2282 8.24995ZM55.5241 6.77357C57.8689 6.19404 60.1978 5.63647 62.5909 5.4244C63.4963 5.34423 64.4037 5.29888 65.3092 5.22519C65.5145 5.20869 65.8421 5.25631 65.8539 4.99137C65.8682 4.67328 65.5321 4.80803 65.3386 4.77077C65.2859 4.76067 65.2289 4.77128 65.1738 4.77362C61.8445 4.917 58.6398 5.67474 55.5241 6.77357ZM36.2868 21.6339C35.8374 22.298 35.0791 22.564 34.449 22.9794C32.4225 24.3155 30.469 25.7395 28.6603 27.3539C28.0995 27.8541 27.537 28.3151 26.7244 28.3462C26.5271 28.3537 25.9757 28.3851 26.5307 28.7938C26.7637 28.9658 26.5484 29.0657 26.4449 29.1704C25.4727 30.1551 24.5671 31.2213 23.4925 32.081C23.035 32.4473 22.8701 32.9269 22.5102 33.286C21.4193 34.3743 20.7045 35.7304 19.7626 36.9234C19.1935 37.6442 18.8195 38.5148 18.3404 39.3493C18.1039 39.1997 18.4201 38.9489 18.2193 38.8619C18.0424 38.7858 17.8287 38.9058 17.8042 39.0365C17.7057 39.5629 17.1519 40.0069 17.5022 40.6189C17.6569 40.8883 17.4655 41.1738 17.2635 41.2037C16.9233 41.2538 16.6633 41.2114 17.0014 41.6248C17.0311 41.6607 17.0222 41.7273 17.0309 41.7799C15.9402 41.9188 16.6517 42.7871 16.4047 43.266C15.758 44.5205 15.393 45.8844 14.7604 47.1586C14.305 48.0759 14.0611 49.1899 13.8854 50.2742C13.762 51.0346 13.5836 51.8479 13.2348 52.5646C13.039 52.9667 12.8538 53.3598 12.8285 53.792C12.7942 54.3782 12.3484 54.4498 11.9395 54.6053C11.4327 54.798 11.514 54.353 11.3929 54.1292C11.1734 53.7234 10.6972 53.8638 10.3761 53.756C9.00103 53.2944 8.82601 52.1348 8.6729 51.0405C8.42557 49.2727 8.74865 47.507 9.05495 45.7586C10.0278 40.2082 12.2352 35.1461 15.5028 30.5438C18.5614 26.2355 22.3269 22.5811 26.546 19.3821C28.3115 18.0435 30.2168 16.9073 32.0653 15.6896C33.5742 14.6956 35.0833 13.7195 36.6681 12.8548C39.2496 11.4467 41.8671 10.1143 44.5687 8.94232C49.0551 6.99583 53.5962 5.20641 58.3761 4.10201C60.8904 3.52149 63.446 3.30158 66.024 3.41606C66.4649 3.43549 66.9027 3.49707 67.3168 3.66342C67.6189 3.78495 68.026 3.8507 68.0429 4.23248C68.0584 4.58668 67.8657 4.91408 67.345 5.05982C68.1896 5.17821 68.9755 5.26232 68.4712 6.33126C68.3958 6.4906 68.5198 6.54679 68.608 6.6542C69.0646 7.21133 68.9556 7.67063 68.302 8.05446C68.4688 8.16009 68.8143 7.96316 68.8196 8.3049C68.8235 8.53918 68.5705 8.5794 68.3884 8.61545C66.4127 9.00598 64.4692 9.52643 62.5214 10.0331C59.0191 10.9437 55.576 12.0137 52.1893 13.3032C49.0768 14.4884 46.0333 15.8135 43.0298 17.2359C41.8486 17.7953 40.7286 18.482 39.6222 19.2092C48.709 14.386 58.2878 10.9735 68.3828 9.01069C68.1742 9.42586 67.7555 9.39898 67.4212 9.48263C59.2324 11.5318 51.2169 14.064 43.6044 17.767C41.3541 18.8616 39.2006 20.1181 37.0313 21.3515C36.787 21.4902 36.543 21.6037 36.2693 21.66C35.9142 21.2005 36.525 21.2163 36.6225 21.1499C37.483 20.5628 38.3912 20.0452 39.4321 19.4185C38.3097 19.5817 32.8537 23.0628 32.5401 23.7896C33.0947 23.2137 33.788 22.8307 34.4592 22.4288C35.0256 22.0895 35.509 21.5094 36.2868 21.6339Z" fill="#10584B"/>
<path fill-rule="evenodd" clip-rule="evenodd" d="M40.5518 27.1873C41.4127 27.4087 41.86 26.52 42.624 26.542C42.7497 26.5459 42.8434 26.3648 42.7901 26.2233C42.7277 26.0586 42.5281 25.9258 42.4072 26.0395C41.8748 26.5424 41.0264 26.5297 40.5518 27.1873ZM45.8521 26.9574C48.1699 26.1544 50.4485 25.2488 52.8223 24.6205C50.3457 24.9474 48.025 25.7391 45.8521 26.9574ZM57.4891 25.5951C52.6098 25.9329 48.1552 27.601 43.9067 29.9145C48.1944 27.7235 52.7669 26.4253 57.4891 25.5951ZM43.7434 25.7992C44.5219 25.5064 45.2831 25.1488 46.0828 24.9376C46.9946 24.697 47.8355 24.2739 48.782 24.0703C49.5039 23.915 50.3218 23.5874 51.0872 23.3545C53.7173 22.5535 56.4548 22.3376 59.1747 22.0572C59.6324 22.01 60.1036 22.0512 60.5631 22.0998C60.7073 22.1152 60.8409 22.2915 60.9965 22.1367C61.0426 22.0915 61.0673 21.984 61.0472 21.9228C60.9711 21.6921 60.755 21.7046 60.567 21.7028C59.7541 21.6949 58.8888 21.8692 58.1397 21.6535C56.9365 21.3073 55.8988 21.8984 54.7812 21.956C53.98 21.997 53.1981 22.4854 52.4566 22.372C51.342 22.2015 50.4861 22.7338 49.5184 22.9966C48.5919 23.2479 47.8318 23.9535 46.9703 24.1243C45.6906 24.3785 44.6518 24.9043 43.7434 25.7992ZM62.2601 22.0285C62.6983 22.1329 63.0631 22.209 63.4208 22.3089C63.6494 22.3727 63.9344 22.3917 63.9575 22.7212C63.9785 23.0134 63.7252 23.0558 63.5382 23.1584C63.4125 23.2272 63.3175 23.3194 63.3097 23.4724C64.1878 23.4868 64.2316 23.5903 64.0523 24.4413C64.0088 24.6481 63.5957 24.978 64.1464 25.2555C64.4096 25.3884 64.0114 25.5529 63.837 25.613C62.7879 25.9745 61.6854 26.0495 60.5976 26.0953C59.0771 26.1592 57.5691 26.3459 56.0659 26.532C52.6287 26.9573 49.4064 28.1313 46.2483 29.5159C44.3052 30.3677 42.5034 31.4346 40.8262 32.7405C43.3354 31.4741 45.671 29.8486 48.5591 29.012C48.3156 29.5238 47.9251 29.5585 47.6331 29.6766C44.6767 30.8721 41.9266 32.4239 39.3704 34.3187C39.2583 34.4018 39.1526 34.6429 38.9841 34.4315C38.5491 33.8853 38.1936 34.4362 37.9849 34.6064C37.6783 34.8569 37.0805 35.1177 37.5456 35.8082C36.354 35.285 36.2523 36.5836 35.4644 36.7261C35.7812 37.1116 36.0087 36.6343 36.3272 36.816C35.8321 37.3076 35.3204 37.7643 34.8743 38.2767C34.5928 38.5996 34.5382 37.8103 34.1837 38.2382C33.6967 38.8258 32.982 39.2278 32.4837 39.8082C32.2524 40.0776 31.9558 39.8965 31.7379 40.1723C32.3423 40.3942 32.314 40.6117 31.8168 40.9992C31.0369 41.6076 30.4154 42.3675 29.9968 43.2869C29.7144 43.9081 29.1485 44.3709 28.8944 45.0228C28.8205 45.2131 28.6306 45.1603 28.4646 45.1669C27.7468 45.1952 27.5245 45.4923 27.6829 46.1868C27.8304 46.8336 27.9385 47.4568 27.4482 48.0533C27.3107 48.2206 27.2271 48.2772 27.0252 48.3195C26.5199 48.425 26.3619 49.2416 26.6758 49.6792C27.0866 50.2508 27.0073 51.0275 26.8054 51.5419C26.4716 52.3937 26.8601 53.088 26.9337 53.8409C26.9714 54.2283 26.8532 54.3686 26.5568 54.5316C25.9509 54.8644 25.8805 54.2187 25.6426 54.003C25.4383 53.8174 25.4563 53.4604 25.0143 53.691C24.7969 53.8042 24.6162 53.5855 24.4974 53.3876C24.1865 52.8712 23.6274 52.4155 24.0898 51.7024C24.0967 51.6916 24.3257 51.23 23.8269 51.3192C23.6656 51.3478 23.4649 51.0091 23.4654 50.7521C23.4658 49.5636 23.0813 48.399 23.2857 47.1936C23.333 46.9154 23.2202 46.6215 23.6789 46.7094C23.7837 46.7295 23.9426 46.762 23.9436 46.6211C23.9442 46.5036 23.8235 46.2822 23.7661 46.2854C23.1637 46.3201 23.2939 45.8813 23.4458 45.6691C23.8705 45.0759 23.6423 44.3476 23.9388 43.7539C24.4087 42.8125 24.6303 41.7653 25.5016 40.9884C25.8164 40.7075 25.8327 39.9749 26.1027 39.4612C26.8385 38.061 27.8763 36.8759 28.8073 35.6203C29.5341 34.6408 30.4156 33.7692 31.2468 32.8642C33.1768 30.763 35.3805 28.9968 37.7139 27.3763C40.6133 25.3628 43.7918 23.8382 47.0706 22.587C50.6216 21.2318 54.3142 20.3188 58.1526 20.226C59.647 20.1897 61.1334 20.2744 62.5364 20.8518C62.7976 20.9594 63.2268 20.9575 63.2048 21.3429C63.1853 21.6816 62.8269 21.7646 62.524 21.8362C62.4565 21.8518 62.4022 21.9219 62.2601 22.0285Z" fill="#10584B"/>
<path fill-rule="evenodd" clip-rule="evenodd" d="M63.0178 31.6018C62.9192 31.8502 62.7504 31.9373 62.5865 32.034C62.3919 32.1489 61.9939 32.1229 62.089 32.459C62.1879 32.8072 62.5014 32.5683 62.7252 32.5422C62.8067 32.5327 62.8859 32.4911 62.9673 32.4882C63.3269 32.4757 63.5203 32.5819 63.2662 32.954C63.2123 33.0325 63.0466 33.1815 63.1618 33.1801C64.1861 33.1665 63.4682 33.8455 63.5804 34.1831C63.8148 34.8861 63.102 34.9355 62.7909 35.2539C61.9253 36.1412 60.6865 36.5765 59.9253 37.6152C59.627 38.0221 59.1447 37.8858 58.7789 37.5525C58.5139 38.6334 57.489 38.9372 56.7119 39.4621C55.1489 40.5179 53.3007 41.2727 52.0073 42.5752C50.6952 43.8962 49.0667 44.6121 47.6493 45.6894L46.0457 46.2197C45.839 46.353 45.6184 46.4696 45.4279 46.6224C44.3935 47.4536 43.3337 48.2435 42.0843 48.7391C41.8244 48.842 41.5407 49.1906 41.522 48.4771C41.5149 48.2004 40.7536 47.9193 40.3066 47.6975C40.0957 47.5929 39.8367 47.5144 39.9003 47.2735C40.1194 46.4428 39.9453 45.5311 40.7144 44.8167C42.6907 42.9806 44.7673 41.2898 47.0073 39.7707C48.7819 38.5673 50.602 37.4448 52.4286 36.3272C53.8987 35.4277 55.4096 34.6136 56.9745 33.8729C58.5334 33.135 60.007 32.2181 61.6188 31.5691C62.0977 31.3766 62.5158 31.3649 63.0178 31.6018Z" fill="#10584B"/>
<path fill-rule="evenodd" clip-rule="evenodd" d="M63.5201 26.1226C61.4641 26.734 59.3498 26.8365 57.2386 26.9657L57.2159 26.7636C59.3174 26.5499 61.4189 26.3362 63.5201 26.1226Z" fill="#10584B"/>
<path fill-rule="evenodd" clip-rule="evenodd" d="M56.5168 27.0838C55.0073 27.4085 53.4975 27.7332 51.988 28.0579C53.4036 27.2851 54.955 27.1215 56.5168 27.0838Z" fill="#10584B"/>
</g>
<defs>
<clipPath id="clip0_724_55813">
<rect width="69.7471" height="41.2789" fill="white" transform="translate(0 19) rotate(-15)"/>
</clipPath>
</defs>
</svg>
